<?xml version="1.0" encoding="UTF-8"?>
<!DOCTYPE svg PUBLIC "-//W3C//DTD SVG 1.1//EN" "http://www.w3.org/Graphics/SVG/1.1/DTD/svg11.dtd">
<!-- Creator: CorelDRAW 2019 (64-Bit) -->
<svg xmlns="http://www.w3.org/2000/svg" xml:space="preserve" width="1890px" height="455px" version="1.1" style="shape-rendering:geometricPrecision; text-rendering:geometricPrecision; image-rendering:optimizeQuality; fill-rule:evenodd; clip-rule:evenodd"
viewBox="0 0 1893.71 456.17"
 xmlns:xlink="http://www.w3.org/1999/xlink"
 xmlns:xodm="http://www.corel.com/coreldraw/odm/2003">
 <defs>
  <style type="text/css">
   <![CDATA[
    .fil1 {fill:#45C2CD;fill-rule:nonzero}
    .fil0 {fill:#3B418F;fill-rule:nonzero}
   ]]>
  </style>
 </defs>
 <g id="Layer_x0020_1">
  <metadata id="CorelCorpID_0Corel-Layer"/>
  <polygon class="fil0" points="926.98,82.03 881.76,82.03 881.76,51.88 1004.89,51.88 1004.89,82.03 959.68,82.03 959.68,200.49 926.98,200.49 "/>
  <path class="fil0" d="M1027.61 136.8l0 -84.92 32.69 0 0 84.07c0,24.2 12.1,36.73 32.06,36.73 19.96,0 32.06,-12.1 32.06,-35.67l0 -85.13 32.69 0 0 83.86c0,45 -25.27,67.09 -65.18,67.09 -39.91,0 -64.32,-22.3 -64.32,-66.03z"/>
  <path class="fil0" d="M1245.63 124.06c15.93,0 25.06,-8.49 25.06,-21.01l0 -0.43c0,-14.01 -9.78,-21.23 -25.69,-21.23l-32.49 0 0 42.67 33.12 0zm-65.81 -72.18l67.94 0c18.89,0 33.54,5.31 43.3,15.08 8.29,8.28 12.74,19.95 12.74,33.96l0 0.43c0,23.99 -12.95,39.06 -31.84,46.07l36.3 53.07 -38.21 0 -31.85 -47.55 -25.69 0 0 47.55 -32.69 0 0 -148.61z"/>
  <polygon class="fil0" points="1456.43,51.88 1416.94,51.88 1356.65,112.17 1356.65,51.88 1323.96,51.88 1323.96,200.49 1356.65,200.49 1356.65,140.2 1416.94,200.49 1456.43,200.49 1382.13,126.19 "/>
  <path class="fil0" d="M1468.31 136.8l0 -84.92 32.68 0 0 84.07c0,24.2 12.11,36.73 32.06,36.73 19.96,0 32.07,-12.1 32.07,-35.67l0 -85.13 32.69 0 0 83.86c0,45 -25.27,67.09 -65.18,67.09 -39.91,0 -64.32,-22.3 -64.32,-66.03z"/>
  <path class="fil0" d="M1696.28 138.29l-19.75 -48.19 -19.73 48.19 39.48 0zm-34.39 -87.47l30.14 0 63.69 149.67 -34.17 0 -13.59 -33.33 -62.84 0 -13.59 33.33 -33.33 0 63.69 -149.67z"/>
  <polygon class="fil0" points="1769.94,175.65 1851.68,80.54 1772.5,80.54 1772.5,51.88 1893.71,51.88 1893.71,76.72 1811.98,171.83 1893.71,171.83 1893.71,200.49 1769.94,200.49 "/>
  <path class="fil0" d="M1265.35 341.47l-19.53 -47.67 -19.52 47.67 39.05 0zm-34.01 -86.5l29.81 0 62.99 148.01 -33.81 0 -13.44 -32.96 -62.14 0 -13.44 32.96 -32.96 0 62.99 -148.01z"/>
  <path class="fil0" d="M1407.47 374.64c14.28,0 22.88,-5.04 22.88,-15.96l0 -0.42c0,-9.86 -7.34,-15.95 -23.93,-15.95l-37.37 0 0 32.33 38.42 0zm-8.61 -59.21c14.27,0 23.3,-4.62 23.3,-15.53l0 -0.42c0,-9.66 -7.56,-15.12 -21.21,-15.12l-31.9 0 0 31.07 29.81 0zm-61.31 -59.41l68.24 0c16.79,0 30.02,4.61 38.41,13.01 6.73,6.72 10.09,14.91 10.09,24.99l0 0.42c0,16.59 -8.82,25.83 -19.32,31.7 17.01,6.51 27.5,16.38 27.5,36.11l0 0.42c0,26.87 -21.83,40.31 -55,40.31l-69.92 0 0 -146.96z"/>
  <polygon class="fil0" points="1480.31,256.02 1512.64,256.02 1512.64,373.59 1585.91,373.59 1585.91,402.98 1480.31,402.98 "/>
  <path class="fil0" d="M1713.14 329.92l0 -0.42c0,-25.2 -18.48,-46.19 -44.51,-46.19 -26.04,0 -44.09,20.58 -44.09,45.77l0 0.42c0,25.19 18.48,46.19 44.5,46.19 26.04,0 44.1,-20.58 44.1,-45.77zm-122.4 0l0 -0.42c0,-41.78 32.96,-76.01 78.3,-76.01 45.36,0 77.9,33.81 77.9,75.59l0 0.42c0,41.78 -32.97,76 -78.31,76 -45.35,0 -77.89,-33.8 -77.89,-75.58z"/>
  <polygon class="fil0" points="1159.54,256.01 1120.49,256.01 1060.87,315.63 1060.87,256.01 1028.54,256.01 1028.54,402.98 1060.87,402.98 1060.87,343.36 1120.49,402.98 1159.54,402.98 1086.06,329.5 "/>
  <path class="fil1" d="M32.2 109.7l92.07 -85.22c-38.06,19.29 -69.99,48.92 -92.07,85.22z"/>
  <path class="fil1" d="M242.87 455.69c7.42,-0.5 14.74,-1.36 21.95,-2.55l99.13 -88.99 0 -39.14 -121.08 130.68z"/>
  <path class="fil1" d="M329.61 432.02c12.1,-6.09 23.59,-13.23 34.35,-21.29l0 -19.16 -34.35 40.45z"/>
  <path class="fil1" d="M33.4 348.41c1.41,2.27 2.86,4.52 4.35,6.74l200.92 -189.82 0 -38.34 -205.27 221.42z"/>
  <path class="fil1" d="M364.85 46.12c-10.13,-7.67 -20.92,-14.52 -32.27,-20.43l-65.39 70.52 44.63 0 53.03 -50.09z"/>
  <path class="fil1" d="M230.85 0l-230.85 248.18c0.43,4.86 0.99,9.7 1.71,14.46l274.91 -257.31c-14.77,-3.26 -30.08,-5.09 -45.77,-5.33z"/>
  <path class="fil1" d="M248.23 96.21l79.32 -73.07c-13.41,-6.57 -27.55,-11.87 -42.28,-15.73l-274.72 292.16c1.3,3.97 2.71,7.88 4.22,11.75l223.89 -206.29 0 -8.82 9.57 0z"/>
  <path class="fil1" d="M399.63 78.65c-8.86,-10.2 -18.61,-19.6 -29.12,-28.09l-42.11 45.65 52.16 0 19.07 -17.56z"/>
  <path class="fil1" d="M238.67 193.5l-176.82 191.71c0.78,0.83 1.57,1.63 2.37,2.44l204.37 -188.27 -29.92 0 0 -5.88z"/>
  <path class="fil1" d="M184.31 452.18c4.3,0.82 8.64,1.52 13.03,2.1l166.61 -156.92 0 -38.18 -179.64 193z"/>
  <path class="fil1" d="M157.1 10.96l-152.61 167.76c-1.55,7.02 -2.78,14.15 -3.67,21.39l216.38 -199.92c-20.89,0.91 -41.04,4.62 -60.1,10.77z"/>
  <path class="fil1" d="M357.44 199.38l-221.96 237.62c2.86,1.26 5.75,2.47 8.67,3.62l219.81 -204.71 0 -36.53 -6.52 0z"/>
  <path class="fil1" d="M401.44 80.79l-14.09 15.42 26.05 0c-3.77,-5.31 -7.76,-10.46 -11.96,-15.42z"/>
  <path class="fil1" d="M96.32 414.93c1.84,1.29 3.7,2.55 5.59,3.79l233.74 -219.35 -42.5 0 -196.83 215.56z"/>
  <path class="fil0" d="M806.68 332.56l-108.04 103.08c46.53,-21.28 84.65,-57.76 108.04,-103.08z"/>
  <path class="fil0" d="M732.67 39.81c-2.44,-1.67 -4.91,-3.3 -7.42,-4.87l-132.84 124.04 0 33.15 140.26 -152.32z"/>
  <polygon class="fil0" points="467.12,275.99 467.12,328.19 585.73,199.38 549.15,199.38 "/>
  <path class="fil0" d="M495.07 27.5c-30.77,16.71 -57.25,40.31 -77.4,68.71l15.41 0 61.99 -68.71z"/>
  <path class="fil0" d="M667.57 447.19l158.91 -169.24c2.15,-9.66 3.69,-19.55 4.58,-29.63l-222.2 207.85c20.34,-0.44 40.02,-3.55 58.71,-8.98z"/>
  <polygon class="fil0" points="483.37,199.38 467.11,214.58 467.11,257.76 521.77,199.38 "/>
  <path class="fil0" d="M691.94 17.6c-3.31,-1.39 -6.65,-2.7 -10.03,-3.92l-89.5 83.71 0 26.53 99.53 -106.32z"/>
  <path class="fil0" d="M796.17 105.37c-1.59,-2.49 -3.24,-4.93 -4.92,-7.35l-324.13 302.45 0 10.24c10.03,7.53 20.7,14.26 31.92,20.08l297.13 -325.42z"/>
  <path class="fil0" d="M768.2 69.91c-1.84,-1.91 -3.71,-3.78 -5.61,-5.62l-295.47 271.64 0 56.11 301.08 -322.13z"/>
  <path class="fil0" d="M579.44 1.25c-7.31,0.78 -14.52,1.89 -21.6,3.34l-98.2 91.62 33.17 0 86.63 -94.96z"/>
  <path class="fil0" d="M642.98 3.32c-4.78,-0.83 -9.59,-1.5 -14.46,-2.03l-100.92 94.92 28.3 0 87.08 -92.89z"/>
  <path class="fil0" d="M828.62 189.02l-278.65 260.8c15.54,3.76 31.71,5.94 48.32,6.34l232.8 -247.9c-0.56,-6.49 -1.38,-12.91 -2.47,-19.24z"/>
  <path class="fil0" d="M814.77 141.1l-312.52 291.31c12.53,6.25 25.71,11.38 39.42,15.25l277.6 -294.73c-1.39,-3.99 -2.89,-7.94 -4.5,-11.83z"/>
 </g>
</svg>
